# xmcd
#
# Track frame offsets: 
#        150
#        12733
#        26759
#        47769
#        59850
#        75204
#        91608
#        106307
#        117077
#        134334
#        153147
#        164259
#
# Disc length: 2370 seconds
#
# Revision: 0
# Processed by: cddbd v1.5.2PL0 Copyright (c) Steve Scherf et al.
# Submitted via: ExactAudioCopy v0.95b4
#
DISCID=8f09400c
DTITLE=Wilson Family Band, The - Chasing Faith
DYEAR=2010
DGENRE=Gospel
TTITLE0=01  I Come In The Name Of The Lord
TTITLE1=02  Dear Lord
TTITLE2=03  From The Third Day On
TTITLE3=04  Wait For The Light To Shine
TTITLE4=05  All The Way My Saviour Leads Me
TTITLE5=06  The Devils Got His Church Clothes On
TTITLE6=07  If They Could See Me Now
TTITLE7=08  Keep Walking
TTITLE8=09  Chasing Faith
TTITLE9=10  Who's Ready
TTITLE10=11  Walking A Straight Path
TTITLE11=12  The Old Rugged Cross
EXTD=
EXTT0=
EXTT1=
EXTT2=
EXTT3=
EXTT4=
EXTT5=
EXTT6=
EXTT7=
EXTT8=
EXTT9=
EXTT10=
EXTT11=
PLAYORDER=
